<?xml version="1.0" encoding="UTF-8" standalone="no"?>
<!-- Created with Inkscape (http://www.inkscape.org/) -->

<svg
   xmlns:dc="http://purl.org/dc/elements/1.1/"
   xmlns:cc="http://creativecommons.org/ns#"
   xmlns:rdf="http://www.w3.org/1999/02/22-rdf-syntax-ns#"
   xmlns:svg="http://www.w3.org/2000/svg"
   xmlns="http://www.w3.org/2000/svg"
   xmlns:sodipodi="http://sodipodi.sourceforge.net/DTD/sodipodi-0.dtd"
   xmlns:inkscape="http://www.inkscape.org/namespaces/inkscape"
   width="200px"
   height="200px"
   viewBox="0 0 744.09448819 1052.3622047"
   id="svg10560"
   version="1.1"
   inkscape:version="0.91 r13725"
   sodipodi:docname="d-logo.svg">
  <defs
     id="defs10562" />
  <sodipodi:namedview
     id="base"
     pagecolor="#ffffff"
     bordercolor="#666666"
     borderopacity="1.0"
     inkscape:pageopacity="0.0"
     inkscape:pageshadow="2"
     inkscape:zoom="2.65"
     inkscape:cx="100"
     inkscape:cy="99.625698"
     inkscape:document-units="px"
     inkscape:current-layer="layer1"
     showgrid="false"
     inkscape:window-width="1366"
     inkscape:window-height="705"
     inkscape:window-x="-8"
     inkscape:window-y="-8"
     inkscape:window-maximized="1"
     inkscape:snap-grids="false" />
  <metadata
     id="metadata10565">
    <rdf:RDF>
      <cc:Work
         rdf:about="">
        <dc:format>image/svg+xml</dc:format>
        <dc:type
           rdf:resource="http://purl.org/dc/dcmitype/StillImage" />
        <dc:title />
      </cc:Work>
    </rdf:RDF>
  </metadata>
  <g
     inkscape:label="Layer 1"
     inkscape:groupmode="layer"
     id="layer1">
    <path
       style="fill:#ffffff"
       d="m 87.806672,195.59138 0,175.57182 A 361.06821,361.06821 0 0 1 265.86553,195.59138 l -178.058858,0 z m 330.003958,0.33913 a 331.3819,331.3819 0 0 0 -331.381074,331.39132 331.3819,331.3819 0 0 0 1.377116,27.97391 l 0,303.05773 323.138908,0 a 331.3819,331.3819 0 0 0 6.86505,0.34939 A 331.3819,331.3819 0 0 0 749.19165,527.32183 331.3819,331.3819 0 0 0 417.81063,195.93051 Z m 0.34938,150.5063 a 180.87932,180.87932 0 0 1 180.87476,180.88502 180.87932,180.87932 0 0 1 -180.87476,180.87477 180.87932,180.87932 0 0 1 -3.75109,-0.18501 l -176.37344,0 0,-165.42844 a 180.87932,180.87932 0 0 1 -0.76049,-15.26132 180.87932,180.87932 0 0 1 180.88502,-180.88502 z m -0.34938,127.03368 a 53.84958,53.849578 0 0 0 -53.85137,53.84107 53.84958,53.849578 0 0 0 53.85137,53.85135 53.84958,53.849578 0 0 0 53.85132,-53.85135 53.84958,53.849578 0 0 0 -53.85132,-53.84107 z"
       id="path10504"
       inkscape:connector-curvature="0" />
  </g>
</svg>
